<?xml version="1.0" encoding="UTF-8"?>
<svg id="Layer_1" xmlns="http://www.w3.org/2000/svg" version="1.1" viewBox="0 0 144 144">
  <!-- Generator: Adobe Illustrator 29.3.1, SVG Export Plug-In . SVG Version: 2.1.0 Build 151)  -->
  <defs>
    <style>
      .st0 {
        fill: #bdbdbd;
      }

      .st1 {
        fill: #eeedee;
      }

      .st2 {
        fill: #f7f7f8;
      }

      .st3 {
        fill: #b5b4b6;
      }

      .st4 {
        fill: #b5b5b5;
      }

      .st5 {
        fill: #f9f9fa;
      }

      .st6 {
        fill: #b3b3b4;
      }

      .st7 {
        fill: #acacad;
      }

      .st8 {
        fill: #f4f4f4;
      }

      .st9 {
        fill: #afafb0;
      }

      .st10 {
        fill: #aaaaab;
      }

      .st11 {
        fill: #b9b9ba;
      }

      .st12 {
        fill: #adadae;
      }

      .st13 {
        fill: #b5b6b6;
      }

      .st14 {
        fill: #b5b6b7;
      }

      .st15 {
        fill: #f7f8f8;
      }

      .st16 {
        fill: #b7b7b7;
      }

      .st17 {
        fill: #b4b2b4;
      }

      .st18 {
        fill: #aeadb0;
      }

      .st19 {
        fill: #a8a7a8;
      }

      .st20 {
        fill: #b0aeb0;
      }

      .st21 {
        fill: #b8b8b8;
      }

      .st22 {
        fill: #acabac;
      }

      .st23 {
        fill: #a9aaab;
      }

      .st24 {
        fill: #aaabac;
      }

      .st25 {
        fill: #a9a8aa;
      }

      .st26 {
        fill: #b4b4b5;
      }

      .st27 {
        fill: #f3f3f3;
      }

      .st28 {
        fill: #b4b5b6;
      }

      .st29 {
        fill: #b5b6b8;
      }

      .st30 {
        fill: #afb0b2;
      }

      .st31 {
        fill: #f7f8f9;
      }
    </style>
  </defs>
  <path class="st5" d="M0,0h144v144H0V0Z"/>
  <g>
    <path class="st21" d="M65.8,65.8c.3.6.2,1.2.2,1.9.2,0,.3,0,.5,0,2.3-.3,4.7-.5,7-.7,2.4-.2,4.7-.4,7-.7,3.3-.4,6.4.8,9.5,1.8.5.2,1,.3,1.5.4.3,0,.7.2,1,.3,1.5.4,3,.9,4.4,1.3.2,0,.4.1.7.2.5.1.9.3,1.4.4,0,.1,0,.2-.1.3-.4,1.1-.7,2.2-1,3.2-.7,1.7-2.1,2.3-3.6,3.2-1.4.8-2.8,1.7-4.2,2.7-.7.5-1.4,1-2.1,1.4-.5.3-.9.7-1.4,1-.1,0-.3.2-.4.3-.3.2-.5.4-.8.6-.7.5-1,.6-1.8.6-.4-.1-.7-.4-1-.8-.1-1.4.2-2.7.5-4,0-.2.1-.4.2-.7.2-.7.3-1.4.5-2.1.1-.5.2-.9.3-1.4.3-1.1.6-2.3.9-3.4-.4,0-.9-.1-1.3-.2,0,.2,0,.4-.1.6-.4,1.9-.8,3.9-1.3,5.8,0,.3-.1.6-.2.8-.8,3.3-1.6,5.3-2.6,6-1.4.9-3,.9-4.6.9-.8,0-1.6,0-2.3,0h-.5c-1.9,0-3.8.2-5.7.3-2.9.2-5.8.1-8.7,0-.4,0-.9,0-1.3,0-3.9-.1-6.3-.5-7.1-1.3-1-1-1.6-2.2-2.2-3.4-.2-.5-.5-.9-.8-1.4,0-.1-.1-.2-.2-.3-.6-1.1-1.2-2.2-1.9-3.3,0-.2-.2-.3-.3-.5,0-.2-.2-.3-.3-.5,0-.2-.2-.3-.3-.4-.2-.3-.4-.6-.6-1,0-.2-.2-.3-.3-.5,0-.2-.2-.3-.3-.4-.3-.7-.4-1.4-.2-2.1.4-.6.7-.7,1.4-.9.3,0,.6,0,.8,0,.2,0,.3,0,.5,0,.5,0,1,0,1.6-.1.4,0,.8,0,1.2,0,.8,0,1.6-.1,2.5-.2,1.3,0,2.6-.2,3.9-.3.2,0,.4,0,.6,0,.5,0,1,0,1.4-.1,0-.1,0-.3,0-.4,0-.5-.1-1-.1-1.6,0-.2,0-.4,0-.5,0-.3.1-.6.3-.8,2.1-1.6,7.4-1.2,9.6.1h0Z"/>
    <path class="st16" d="M67.9,22.5c1.6-.1,2.9.4,4.4,1,.4.2.8.3,1.3.5.3.1.5.2.8.3.1,0,.3,0,.4.1.9.3,1.5.8,2.2,1.4.2.5.2.8.2,1.4v6.8c0,.2-.2.5-.4.7-1.2,0-2.2-.4-3.3-.8-.2,0-.3-.1-.5-.2-.7-.3-1.3-.6-1.5-.9,0-.5,0-1.1,0-1.6,0-.2,0-.3,0-.5,0-.5,0-1,0-1.5,0-.3,0-.7,0-1,0-.8,0-1.7,0-2.5-.4-.2-.9-.4-1.3-.6v.7c0,.9,0,1.8,0,2.7v4.3c0,.3-.2.6-.4.9-1.4.4-2.9.5-4.3.6-.3,0-.6,0-.8,0-.7,0-1.3,0-1.9.2-.9,0-1.8.1-2.6.2-1.3.1-2.7.2-4,.3-.5,0-1.1,0-1.6.1-.8,0-1.5.1-2.3.2-.2,0-.5,0-.7,0-1.1,0-2.1.2-3.2.2-.2,0-.4,0-.5,0-.3,0-.6-.1-.8-.3-.4-.5-.3-1.1-.3-1.8v-2.7c0-.9,0-1.8,0-2.7,0-.1,0-.3,0-.5,0-.4,0-.9,0-1.3,0-.1,0-.3,0-.4,0-.5,0-.9.4-1.4.7-.5,1.5-.5,2.3-.5.3,0,.7,0,1,0,.2,0,.4,0,.6,0,3-.2,6.1-.4,9.1-.7.1,0,.3,0,.5,0,.6,0,1.1-.1,1.7-.2,1.2-.1,2.4-.2,3.6-.4.2,0,.3,0,.5,0,.6,0,1.2,0,1.8-.1h0Z"/>
    <path class="st16" d="M95.8,88.6c.4.2.7.5,1.1.8.1.1.2.2.4.3,2.9,2.9,3.4,7.5,3.4,11.4,0,3.8-1,8.2-3.8,10.9-1.1.9-2.1,1-3.5,1-1.4-.2-2.1-.9-3-1.9-1.6-2.2-2.5-4.6-2.9-7.2,0-.1,0-.3,0-.4,0-.4,0-.8-.1-1.3,0-.2,0-.5,0-.7-.1-4.2.8-8.3,3.6-11.5,1.4-1.4,3-2,5-1.4h0Z"/>
    <path class="st16" d="M39.4,90.8c.3.2.6.4,1,.6.1,0,.2.2.3.3,1.9,1.7,2.8,4.6,3.1,7.1.2,4.2,0,8.5-2.8,11.9-.9.8-1.6,1.2-2.8,1.3-1.5,0-2.3-.7-3.3-1.8-2.6-3.1-3-7.3-2.7-11.2.4-3.1,1.6-5.7,4-7.7,1-.8,2.2-.9,3.4-.5Z"/>
    <path class="st13" d="M60.7,87.5h3.6c0,.6,0,1.2,0,1.8,0,.2,0,.4,0,.6,0,.8-.1,1.4-.5,1.7-.2.1-.4.2-.6.3-.1,0-.2.1-.4.2-.5.3-1.1.6-1.6.9-1.1.6-2,1.4-2.7,2.3,0,1.2.3,1.9.9,2.9h.9c0-.2-.2-.4-.3-.6-.3-.7-.4-1.2-.3-1.9.5-.8,1.1-1.2,1.9-1.7.2-.1.4-.2.6-.3.4-.2.7-.2,1-.2.5.3.7.7.9,1.2,0,.2.2.4.3.6,1.3,3.3,1.1,7.8-.3,11.1,0,.2-.1.3-.2.5-.7,1.6-1.9,3.1-3.6,3.8-1.1.2-2,.1-3-.5-2.2-1.7-3.3-4.3-3.7-6.9-.4-3.8-.1-7.5,2.2-10.7.7-.9,1.2-1.2,2.3-1.6.4-.2.7-.4,1.1-.7.6-.4,1.1-.6,1.4-.6v-2.3h0Z"/>
    <path class="st13" d="M119.2,91.2c1.6.8,2.6,2.3,3.2,4,1.5,4.4,1.4,9.3-.6,13.6-.7,1.3-1.5,2.2-2.8,2.8-.9.2-1.7,0-2.5-.4-1.4-1-2.2-2.5-2.8-4.2,0-.2-.2-.4-.2-.6-1.2-3.7-.9-8.4.8-11.9,1.1-2.2,2.3-3.7,4.9-3.4h0Z"/>
    <path class="st14" d="M102.5,58c.4,0,.9.2,1.3.3,2.5.5,3.9.9,4.2,1.3,0,1.2-.6,2.7-1.5,3.6-1.2,0-2.1-.2-3.2-.5-1.8-.5-3.5-.5-5.2-.2-1.2.9-1.9,2.1-2.7,3.3-.2.3-.3.5-.5.8,0,.1-.1.2-.2.3-.2.3-.4.6-.6.9-1.2-.1-2.3-.5-3.5-.9-.2,0-.4-.1-.6-.2-.5-.2-.9-.3-1.4-.5.3-.8.7-1.4,1.2-2.1,0-.1.2-.2.2-.3.3-.3.5-.7.8-1,.1-.2.3-.4.4-.5.4-.5.8-1,1.3-1.5.1-.2.3-.3.4-.5,2.8-3.2,5.6-3.2,9.5-2.3h0Z"/>
    <path class="st13" d="M102.8,70.5c.4.3.5.5.7.9,0,1.4-.3,2.6-.8,3.9-.1.4-.2.7-.3,1.1-.7,2.1-1.4,3.2-3.4,4.2-.3.2-.6.3-.9.5-.1,0-.3.2-.4.2-2.2,1.2-4.2,2.7-5.8,4.7-.4.5-.9.8-1.2.9s-.7,0-1.1-.1v.4c-2.1,0-4.1.1-6.2.2.7-1.4,1.7-2.3,3-3.2.1,0,.3-.2.4-.3,2.6-1.8,5.3-3.6,8-5.3.4-.3.8-.5,1.3-.8.3-.2.7-.4,1-.6,1.7-1.1,2.1-2.5,2.6-4.4.3-.9.6-1.7,1.3-2.4.7-.3,1.1-.2,1.8,0Z"/>
    <path class="st15" d="M94.5,93.7c1.2.5,1.8,1.5,2.3,2.6.5,1.4.7,2.7.7,4.2v.6c0,2.3-.4,4.4-2.1,6.2-.8.5-1.4.6-2.3.4-1.5-.8-2.2-2.7-2.6-4.3-.5-2.9-.3-5.7,1.2-8.2.8-1.1,1.6-1.6,3-1.4Z"/>
    <path class="st13" d="M62.3,42.5c.3.2.5.4.7.5,0,.5,0,1,0,1.6v15.2c-1.4,0-2.9-.1-4.3-.2,0-2.2,0-4.3,0-6.5,0-1,0-2,0-3,0-1,0-1.9,0-2.9v-3.1c0-.7.1-1.2.3-1.5,1-.6,2.4-.5,3.4-.1h0Z"/>
    <path class="st16" d="M44.5,78.8c.3.5.6,1,.9,1.5,0,.1.2.3.2.4,0,.1.2.3.2.4,0,.1.1.2.2.4,0,.2,0,.5,0,.9-.3.2-.6.3-1,.5-.2,0-.4.2-.6.3-.2,0-.5.2-.7.3s-.5.2-.7.3c-.5.2-1,.4-1.5.6-1.1.5-2.2.9-3.3,1.4-.3.2-.7.3-1,.4-.2,0-.4.2-.6.3-.2,0-.4.2-.5.2-.6.2-1.1.5-1.7.8v1.3c0,.3,0,.5-.2.6-.5,0-1,0-1.4,0h-1.4c-.5-2.2-.5-3.7-.2-4.6.6-.7,1.4-1,2.3-1.3.2,0,.4-.2.6-.3.5-.2.9-.4,1.4-.6,1-.4,1.9-.8,2.9-1.2.5-.2,1.1-.5,1.6-.7.4-.2.7-.3,1.1-.5.5-.2,1-.4,1.5-.7.2,0,.3-.1.5-.2.7-.3,1.2-.5,1.5-.5h0Z"/>
    <path class="st29" d="M103.3,77.1c.6.3.9.5,1.3,1,.1.1.2.3.3.4.1.1.2.3.3.4.1.2.2.3.4.4.3.4.7.8,1,1.3.9,1.2,1.9,2.3,2.8,3.4.8.9,1.6,1.8,2.3,2.8.2.3.4.5.6.8.8,1,.6,1.2.6,2.7h-5.7c.1-.4.2-.8.4-1.1,0-.3,0-.6,0-.9-.2-.3-.5-.7-.9-1s-.3-.4-.5-.6-.3-.3-.5-.5l-.7-.8c-.5-.6-1.1-1.2-1.6-1.8-1.2-1.4-2-2.3-2.3-2.8.1-.4.3-.7.6-1,.8-.8,1-1.7,1.2-2.8h0Z"/>
    <path class="st15" d="M38.6,95.6c1.1.7,1.7,2.1,2,3.3.3,2.7.3,5.3-1.2,7.7-.5.5-.9.7-1.6.8-1-.2-1.6-.6-2.2-1.4-1.1-2.3-1.3-5.1-.7-7.6.6-1.8,1.7-3.1,3.7-2.8h0Z"/>
    <path class="st16" d="M64.5,35.5c.3,0,.6.2.8.5.2.6.3,1,.3,1.6v1.8c0,1-.2,1.8-.4,2.2-.9,0-1.6,0-2.4-.3-1.7-.5-3-.3-4.7.3-.6.2-1,.3-1.6.2-.4-.3-.5-.5-.6-1,0-.6,0-1.1,0-1.7,0-.2,0-.4,0-.6v-1.1c.1-.7.3-.8.8-1.2.5,0,1-.2,1.6-.2.2,0,.3,0,.5,0,.5,0,1,0,1.5,0,.3,0,.7,0,1,0,1.1,0,1.8-.1,2.2-.1.3,0,.7,0,1,0h0Z"/>
    <path class="st15" d="M118.8,95.8c1.3,1,1.6,2.3,1.8,3.9.2,2.2.2,4.6-.9,6.5-.5.6-.9.9-1.7,1-.5,0-.9-.2-1.2-.4-1.6-2-1.8-4.3-1.6-6.8.2-1.6.8-2.9,1.9-4.2.6-.3,1.1-.2,1.7,0h0Z"/>
    <path class="st4" d="M118.3,57.6c.9.8,1.8,1.7,1.9,3,0,1.4-.1,2.4-1.1,3.4-.8.7-1.7.8-2.8.7-1.2-.2-1.8-.9-2.6-1.8-.7-1-.8-2-.6-3.2.3-1.2,1-1.9,2.1-2.5,1-.3,2.1-.2,3.1.3h0Z"/>
    <path class="st13" d="M111.8,61c0,.1,0,.2,0,.4.3,1,.6,1.8,1.2,2.7-.3.7-.7,1.1-1.3,1.6,0,0-.2.2-.3.2-.8.7-1.6,1.4-2.4,2-.5.4-1,.8-1.5,1.3-.8.8-1.7,1.5-2.6,2.2,0-.1-.2-.2-.2-.3-.5-.8-1.2-1.4-2-1.9-.1,0-.3,0-.4,0,0-.3,0-.5.3-.6.1,0,.2-.2.4-.3.6-.5,1.2-1,1.8-1.6.7-.6,1.3-1.2,2-1.7.7-.6,1.4-1.2,2.1-1.8,1.5-1.4,2.4-2,2.9-2h0Z"/>
    <path class="st11" d="M75.8,97.5h10.4c0,1-.1,2-.2,3h-10.4c0-1.6,0-2.6.2-3Z"/>
    <path class="st13" d="M75.8,102.2h10.2c.3,1.3.4,2.3.4,3h-10.2c-.3-.9-.4-1.9-.4-3Z"/>
    <path class="st13" d="M76.5,106.7c3.5,0,6.9,0,10.4.2.2.4.3.8.5,1.2,0,.2.2.4.3.7.1.4.2.7.2.9h-10.2c-.8-1.8-1.1-2.8-1.1-3h0Z"/>
    <path class="st16" d="M93.4,96.1c.8.3,1,.6,1.4,1.3.9,2.1.7,4.5,0,6.7-.3.6-.6,1-1.2,1.3-.7,0-.9-.2-1.4-.8-1-2-1.3-4.3-.7-6.5.4-1.1.7-1.9,1.9-2.1h0Z"/>
    <path class="st14" d="M77.1,92.9h10.2c-.2,1-.5,1.9-.8,2.8h-10.4c.3-1.1.6-2.1.9-2.8Z"/>
    <path class="st13" d="M60.3,60.9c.3,0,.5,0,.8,0,2.1,0,3.6.3,4.3.7.6.7.7,1.4.6,2.3-.3.3-.5.4-.8.4-.2,0-.3,0-.5,0-.2,0-.3,0-.5,0-.3,0-.6-.1-.9-.2-.5,0-1-.1-1.6-.1h-3c-.5,0-.8,0-1.2.2-.5,0-.9,0-1.3,0-.3-.3-.4-.6-.5-1,0-.8.2-1.1.8-1.6,1.3-.7,2.4-.6,3.8-.6h0Z"/>
    <path class="st13" d="M82.9,88.5h.6c.7,0,1.3,0,2,0,.4,0,.9,0,1.3,0,1.1,0,2.2,0,3.3,0-.2.3-.3.5-.5.8-.2.2-.3.5-.4.8-.2.4-.4.8-.8,1.1-.8.2-1.5.2-2.3.2h-.7c-.7,0-1.4,0-2.2,0-.5,0-1,0-1.5,0-1.2,0-2.4,0-3.6,0,1.4-2,2.2-2.8,4.7-2.8h0Z"/>
    <path class="st13" d="M37.5,97.4c.7.1.9.3,1.3.9.6,1.1.6,2.1.6,3.2v.5c0,1.3-.2,2.6-1.1,3.6-.3.2-.7.3-1.1.3-.8-.3-.9-.6-1.3-1.3-.3-1.1-.5-2-.5-3.1v-.4c0-1.2.3-2.2,1.1-3.2.2-.2.5-.3.8-.3h0Z"/>
    <path class="st31" d="M65.2,25.6c.9.4,1.5,1,1.9,1.9.1,1.1,0,2.1-.6,3-.6.6-1,.9-1.8,1.1-.8,0-1.3-.2-2-.6-.9-1-1-1.8-1-3.1,0-.9.6-1.4,1.2-2.1.8-.4,1.4-.4,2.2-.3Z"/>
    <path class="st4" d="M22,98.4h8.9c0,.8-.1,1.6-.2,2.4h-8.9c0-1.3,0-2.1.2-2.4Z"/>
    <path class="st4" d="M21.8,102.6h8.9c.1.8.2,1.6.4,2.4h-8.9c-.3-1.1-.4-1.9-.4-2.4Z"/>
    <path class="st13" d="M31.8,94.3l.2.4c-.2.8-.5,1.5-.8,2.3h-8.9c.4-1.3.7-2.1.9-2.4.2,0,.5,0,.8,0s.3,0,.5,0c.2,0,.4,0,.6,0,.2,0,.4,0,.6,0,.6,0,1.2,0,1.8,0s.8,0,1.2,0c1,0,2,0,3,0h0Z"/>
    <path class="st13" d="M22.8,106.5h8.7c.5,1.4.8,2.2.8,2.4h-8.5c-.6-1.3-.9-2.1-.9-2.4Z"/>
    <path class="st4" d="M104.5,94.8h8.3c-.4,1.5-.6,2.3-.8,2.4-.3,0-.5,0-.8,0h-7.5c0-.3.1-.5.2-.8,0-.2,0-.3,0-.4,0-.3.2-.7.5-1.2h0Z"/>
    <path class="st4" d="M103.3,98.8h8.5c0,.8-.1,1.6-.2,2.4h-8.3s0-2.4,0-2.4Z"/>
    <path class="st13" d="M103.5,102.8h8.1c.1.6.2,1.4.2,2.4h-8.1c-.1-.6-.2-1.4-.2-2.4Z"/>
    <path class="st11" d="M104.3,106.7h8.1c.5,1.4.8,2.2.8,2.4-1.1,0-2.2,0-3.2,0-.4,0-.7,0-1.1,0-.5,0-1.1,0-1.6,0s-.3,0-.5,0c-.7,0-1.3-.2-1.6-.5-.5-.7-.6-1.3-.8-2.1h0Z"/>
    <path class="st16" d="M45,97.5h7.5c0,.8-.1,1.6-.2,2.4h-7.7c0-1,.1-1.8.4-2.4Z"/>
    <path class="st11" d="M44.7,101.2h7.7c0,.8.1,1.6.2,2.4h-7.5c-.3-1-.4-1.8-.4-2.4Z"/>
    <path class="st13" d="M114.8,91.1c0,.8-.3,1.4-.8,2-1.3,1-3.2.6-4.8.5-.4,0-.8,0-1.2,0-1,0-1.9,0-2.9,0,.4-.9.9-1.6,1.7-2.3.6-.2,1.2-.2,1.9-.2h6.1Z"/>
    <path class="st28" d="M117.8,97.6c.7.3.9.7,1.2,1.3.6,1.7.3,3.7-.4,5.3-.1.3-.3.5-.6.8-.3,0-.6,0-.9,0-1-1.1-1-2.2-1-3.7v-.4c0-1.1,0-2.1.8-3,.3-.2.6-.3.9-.3h0Z"/>
    <path class="st17" d="M79,111.2c1.4,0,2.8,0,4.2,0,.5,0,.9,0,1.4,0,.7,0,1.4,0,2.1,0s.4,0,.6,0c1,0,1.7.2,2.1.5.4.5.8,1,1.1,1.6-1.2,0-2.4,0-3.7,0-.4,0-.8,0-1.2,0-3,0-5.1-.3-6-1.2-.2-.2-.4-.5-.6-.8Z"/>
    <path class="st4" d="M34.3,90.7c0,.7-.1.8-.5,1.2-.3.3-.5.7-.8,1-2.9,0-5.7.1-8.7.2.5-1.1,1-1.7,2.1-2.3,1.3-.3,2.7-.2,4.1-.2h3.9Z"/>
    <path class="st4" d="M46.2,93.9c.6,0,1.1,0,1.7,0h.5c.5,0,1.1,0,1.6,0h1.1c.9,0,1.8,0,2.7,0-.2.8-.5,1.5-.8,2.3h-7.7c.4-1.1.7-1.9.9-2.3h0Z"/>
    <path class="st13" d="M45.4,105h7.5c.2.8.5,1.5.8,2.3h-7.5c-.5-1.3-.8-2-.8-2.3Z"/>
    <path class="st13" d="M56.2,90.1c0,.9-.4,1.4-.9,2-1.3.9-3,.6-4.5.5-.4,0-.7,0-1.1,0-.9,0-1.7,0-2.6,0,.3-.6.5-.9,1-1.3.1,0,.2-.2.3-.3.8-.6,1.4-.7,2.4-.7.2,0,.3,0,.5,0,.5,0,1,0,1.4,0,.3,0,.7,0,1,0,.8,0,1.6,0,2.4,0h0Z"/>
    <path class="st3" d="M47.1,108.6c1,0,2,0,3.1,0,.3,0,.7,0,1,0,1.9,0,3.2,0,3.8.5.3.4.6.8.8,1.3.2.2.4.4.6.6-.8,0-1.6,0-2.4,0-.3,0-.5,0-.8,0-2.7,0-4.5-.4-5.4-1.3-.1-.1-.2-.2-.4-.3-.2-.2-.3-.4-.3-.7h0Z"/>
    <path class="st15" d="M56.7,98l.8.4v.3c0,.5,0,1,0,1.5,0,.2,0,.3,0,.5,0,1.1,0,1.8.6,2.8.4.1.8.2,1.1.2.7-.9.8-1.7.9-2.8,0-.1,0-.3,0-.4,0-.3,0-.7,0-1,.3-.1.6-.2.9-.4.5,1.1.3,3.1,0,4.2-.3.9-.7,1.6-1.5,2.2-.9.2-1.2,0-1.9-.4-1-.9-1.2-2.4-1.3-3.7v-1.5c0-.8.2-1.3.4-2h0Z"/>
    <path class="st11" d="M24.8,110.3c1.1,0,2.3,0,3.5,0,.4,0,.8,0,1.2,0,2.2,0,3.6,0,4.3.5.4.4.8.8,1,1.3v.2c-1,0-2.1,0-3.1,0-.4,0-.7,0-1.1,0-2.4,0-3.9-.2-4.7-.7-.4-.4-.7-.8-1.1-1.2h0Z"/>
    <path class="st26" d="M106.3,110.3c1.1,0,2.2,0,3.2,0,.4,0,.7,0,1.1,0,.5,0,1.1,0,1.6,0s.3,0,.5,0c.7,0,1.1,0,1.7.5.3.4.5.8.8,1.2-.8,0-1.6,0-2.4,0h-.8c-2.6,0-4.5-.4-5.5-1.2l-.2-.4h0Z"/>
    <path class="st2" d="M116.6,59.2c.8.2,1,.4,1.4,1.1.2.7.2,1.2,0,1.9-.2.3-.6.5-.9.6-.4,0-.8-.1-1.1-.3-.6-.6-.8-1.1-.9-2,0-.4.2-.7.4-1,.3-.2.7-.3,1.1-.3h0Z"/>
    <path class="st13" d="M44.7,101.2h7.7c0,.8.1,1.6.2,2.4h-7.5v-.9c0,.2.1.4.2.6h7v-1.7h-7.2v.9c-.1-.1-.2-.2-.4-.4,0,0,0-.9,0-.9Z"/>
    <path class="st7" d="M75.8,97.5h10.4c0,1-.1,2-.2,3h-5.3v-.2h4.9c0-.8.1-1.6.2-2.4h-9.8v1.5h-.2v-1.9h0Z"/>
    <path class="st7" d="M104.3,106.7h8.1c0,.2-.1.5-.2.8v-.4h-7.6c.2.5.5,1,.8,1.5,2.4,0,4.7.1,7.2.2v.2h-7.4c-.6-1.3-.9-2-.9-2.3h0Z"/>
    <path class="st30" d="M86.5,94.4c.2.6.2.7,0,1.3h-10.4c.1-.2.2-.5.4-.8v.4h9.8c0-.3.1-.6.2-.9h0Z"/>
    <path class="st8" d="M115.6,99l.8.4c0,.7,0,1.3,0,1.9,0,.2,0,.4,0,.6,0,.5,0,1,0,1.5-.3.3-.6.5-.9.6-.2-.8-.2-1.6-.2-2.4v-.4c0-.8,0-1.4.4-2.1h0Z"/>
    <path class="st18" d="M22.8,106.5h8.7c0,.4.1.8.2,1.1-.1-.2-.2-.5-.4-.8h-8.1c0,.3.1.6.2.9-.1,0-.2-.1-.4-.2,0-.4-.1-.8-.2-1.1Z"/>
    <path class="st12" d="M24.8,110.3h8.3c-.7.5-1.3.4-2.1.5-.1,0-.3,0-.5,0-.5,0-1,0-1.4,0-.3,0-.6,0-1,0-.8,0-1.6,0-2.4,0,.4.2.8.5,1.1.8l-.4.2c-.2-.2-.5-.4-.7-.5-.1,0-.3-.2-.4-.3-.2-.2-.4-.4-.5-.7h0Z"/>
    <path class="st6" d="M75.6,98h.2c0,.7.1,1.4.2,2.1h9.1v.2c-3.2.2-6.3.2-9.4.2v-2.4h0Z"/>
    <path class="st20" d="M45,102.8c0,.2.1.4.2.6,1,0,2,0,3,0,.3,0,.7,0,1,0,.5,0,1,0,1.5,0h.5c.6,0,1-.2,1.5-.4v.9h-7.5v-.9h0Z"/>
    <path class="st18" d="M45.4,105h7.5v.4h-7.2c0,.2-.1.4-.2.6,0-.3-.1-.6-.2-.9h0Z"/>
    <path class="st0" d="M87.3,108.8c.2.2.4.4.6.6v.4h-10.2v-.2c3.2-.1,6.3-.2,9.6-.4v-.4Z"/>
    <path class="st19" d="M33.2,110.5c.2.2.4.3.6.5.1,0,.2.2.4.3.2.2.5.5.7.9h-6.8v-.2c.1,0,.3,0,.4,0,.6,0,1.2,0,1.9,0,.2,0,.4,0,.6,0,.2,0,.4,0,.6,0,.2,0,.4,0,.6,0,.6,0,1.1-.1,1.7-.2-.1-.1-.2-.2-.4-.3-.3-.3-.4-.5-.4-.8h0Z"/>
    <path class="st9" d="M32.8,84.1c-.5.4-.9.6-1.1.6-.2.7-.2,1.3-.3,2,0,.1,0,.3,0,.4,0,.3,0,.7,0,1-.5-.9-.5-1.8-.4-2.8.2-.6.4-.8.9-1.2.3,0,.6,0,.9,0h0Z"/>
    <path class="st15" d="M56.7,98l.8.4c-.1,1.1-.2,2.1-.4,3.2h-.2c0-.2,0-.3,0-.5,0-.2,0-.4,0-.7s0-.4,0-.7c0-.4-.1-.8-.2-1.2,0-.2.1-.4.2-.6h0Z"/>
    <path class="st1" d="M116,100.5h.2c0,.9.1,1.9.2,2.8-.3.2-.6.4-.9.6,0-.8.1-1.6.2-2.4h.2c0-.3.1-.6.2-.9h0Z"/>
    <path class="st27" d="M60.9,99.2c.1.2.2.4.4.6-.1,0-.2.2-.4.3-.5.6-.5,1-.6,1.8h-.2v-2.3l.8-.4h0Z"/>
    <path class="st23" d="M107.3,64.4l.4.2c-.3.3-.6.6-.9.9-.2.2-.3.3-.5.5-.5.4-.8.6-1.4.8.7-.9,1.5-1.7,2.4-2.4h0Z"/>
    <path class="st10" d="M89.4,88.6c.2,0,.5,0,.7,0-.5.7-.8,1.2-1.1,1.3.1-.2.2-.5.4-.8-.4,0-.9-.1-1.3-.2.6-.4.7-.4,1.4-.4h0Z"/>
    <path class="st24" d="M35.8,91.4c0,.8-.2,1-.8,1.5-.3.2-.5.3-.8.4.3-.8.9-1.3,1.5-1.9h0Z"/>
    <path class="st22" d="M92,89l.4.2c-.4.4-.8.8-1.3,1.1-.1,0-.2.2-.4.2,0,0-.2.1-.3.2.3-.8.8-1.2,1.5-1.7Z"/>
    <path class="st25" d="M111.4,61h.4v1.3c-.1-.2-.2-.4-.4-.6-.4.1-.8.2-1.1.4l1.1-1.1Z"/>
    <path class="st10" d="M92.8,79.9v.6c-.2.2-.5.4-.7.5-.1,0-.3.2-.4.3-.1,0-.2.1-.4.2l-.4-.2c.6-.4,1.2-.9,1.9-1.3h0Z"/>
  </g>
</svg>
